<svg xmlns="http://www.w3.org/2000/svg" xmlns:xlink="http://www.w3.org/1999/xlink" version="1.1" xml:space="preserve" viewBox="0 0 1080 1080">
<desc>Created with Fabric.js 5.2.4</desc>
<defs>
</defs>
<g transform="matrix(1 0 0 1 540 540)" id="92ad25cb-50d7-4a11-8df5-defddd93fe5c">
</g>
<g transform="matrix(1 0 0 1 540 540)" id="da2a5800-84b8-48fe-b920-d067393ef233">
<rect style="stroke: none; stroke-width: 1; stroke-dasharray: none; stroke-linecap: butt; stroke-dashoffset: 0; stroke-linejoin: miter; stroke-miterlimit: 4; fill: rgb(255,255,255); fill-rule: nonzero; opacity: 1; visibility: hidden;" vector-effect="non-scaling-stroke" x="-540" y="-540" rx="0" ry="0" width="1080" height="1080"/>
</g>
<g transform="matrix(1 0 0 1 540 540)">
<g style="" vector-effect="non-scaling-stroke">
		<g transform="matrix(0.13 0 0 -0.13 104.39 -270.75)">
<path style="stroke: none; stroke-width: 1; stroke-dasharray: none; stroke-linecap: butt; stroke-dashoffset: 0; stroke-linejoin: miter; stroke-miterlimit: 4; fill: rgb(35,31,32); fill-rule: evenodd; opacity: 1;" vector-effect="non-scaling-stroke" transform=" translate(-3770.57, -6525.77)" d="M 3783.71 7591 C 3772.88 7521.14 3782.3 7442.46 3779.17 7364 C 3776.08 7286.94 3780.3 7207.73 3780.3 7133.58 C 3780.28 6535.68 3771.6000000000004 5934.46 3780.3 5349.28 C 3835.3700000000003 5369.28 3881.04 5418.429999999999 3930.1400000000003 5453.7 C 3947.28 5466.03 3969.8900000000003 5475.61 3975.5400000000004 5495.7 C 3982.6000000000004 5520.849999999999 3973.9300000000003 5563.91 3973.26 5597.86 C 3968.2200000000003 5853.7699999999995 3949.1800000000003 6119.62 3939.21 6360.61 C 3931.55 6545.88 3927.29 6731.61 3909.7 6913.379999999999 C 3886.6099999999997 7152.049999999999 3835.5499999999997 7384.7699999999995 3788.25 7594.409999999999 C 3787.12 7594.409999999999 3786.9 7595.329999999999 3785.98 7595.549999999999 C 3784.1 7595.199999999999 3783.78 7591.48 3783.71 7590.999999999999 z M 3773.5 7816.88 C 3791.2 7818.89 3814.45 7730.59 3817.76 7712.46 C 3833.42 7626.69 3854.76 7559.7300000000005 3876.7900000000004 7478.64 C 3882.1200000000003 7458.9800000000005 3882.3200000000006 7437.04 3888.1300000000006 7416.21 C 3918.3200000000006 7307.87 3929.3100000000004 7178.69 3947.1600000000008 7046.18 C 3999.140000000001 6660.22 4015.270000000001 6224.89 4024.350000000001 5820.33 C 4026.830000000001 5709.43 4027.270000000001 5571.66 4032.290000000001 5452.57 C 4033.0300000000007 5435.17 4037.620000000001 5420.62 4033.420000000001 5411.71 C 4023.800000000001 5391.27 3974.380000000001 5391.57 3952.830000000001 5382.2 C 3896.520000000001 5357.7 3862.250000000001 5330.99 3822.3000000000006 5292.53 C 3808.8400000000006 5279.5599999999995 3791.890000000001 5235.5599999999995 3771.2200000000007 5234.639999999999 C 3754.4400000000005 5233.9 3728.520000000001 5278.49 3719.0100000000007 5290.259999999999 C 3680.350000000001 5338.11 3624.7500000000005 5379.61 3554.4300000000007 5393.549999999999 C 3538.9900000000007 5396.61 3514.8600000000006 5397.089999999999 3509.020000000001 5409.44 C 3502.1800000000007 5423.94 3509.020000000001 5475.62 3509.020000000001 5507.049999999999 C 3509.020000000001 5722.249999999999 3524.940000000001 5946.529999999999 3529.460000000001 6148.359999999999 C 3538.4500000000007 6549.489999999999 3574.570000000001 6978.399999999999 3638.4300000000007 7334.489999999999 C 3663.8000000000006 7476.029999999999 3704.290000000001 7609.519999999999 3736.040000000001 7737.4299999999985 C 3739.840000000001 7752.749999999998 3755.5100000000007 7814.839999999998 3773.500000000001 7816.879999999998" stroke-linecap="round"/>
</g>
		<g transform="matrix(0.13 0 0 -0.13 -109.35 -270.36)">
<path style="stroke: none; stroke-width: 1; stroke-dasharray: none; stroke-linecap: butt; stroke-dashoffset: 0; stroke-linejoin: miter; stroke-miterlimit: 4; fill: rgb(35,31,32); fill-rule: evenodd; opacity: 1;" vector-effect="non-scaling-stroke" transform=" translate(-2167.43, -6523.04)" d="M 2327.44 5455.98 C 2341.7200000000003 5467.709999999999 2368.29 5479.62 2372.84 5496.839999999999 C 2375.98 5508.69 2371.98 5524.599999999999 2371.71 5538.829999999999 C 2368.2400000000002 5717.799999999999 2357.78 5891.719999999999 2351.27 6065.499999999999 C 2349.19 6121.329999999999 2343.5 6177.149999999999 2342.2 6231.209999999999 C 2336.3199999999997 6476.089999999999 2325.3599999999997 6725.149999999999 2299.06 6954.239999999999 C 2273.38 7177.999999999999 2225.27 7396.6799999999985 2177.61 7594.409999999999 C 2176.4700000000003 7594.409999999999 2176.26 7595.329999999999 2175.34 7595.549999999999 C 2175.33 7598.209999999999 2172.25 7595.129999999999 2173.07 7593.279999999999 C 2169.9700000000003 7577.549999999999 2169.44 7542.1399999999985 2169.67 7520.629999999999 C 2177.12 6809.079999999999 2168.75 6064.639999999999 2178.75 5349.279999999999 C 2229.88 5380.079999999999 2280.78 5417.659999999999 2327.44 5455.979999999999 z M 2159.45 7806.66 C 2181.8399999999997 7812.13 2195.1499999999996 7741.21 2201.45 7723.8099999999995 C 2213.79 7689.759999999999 2219.8199999999997 7659.789999999999 2227.5499999999997 7626.2 C 2264.87 7464.13 2320.9999999999995 7268.58 2336.5199999999995 7076.83 C 2341.0299999999997 7021.16 2351.1099999999997 6963.05 2358.0899999999997 6906.57 C 2365.16 6849.349999999999 2370.3399999999997 6788.7699999999995 2372.8399999999997 6729.509999999999 C 2375.35 6669.94 2387.0699999999997 6610.969999999999 2388.74 6553.57 C 2392.2299999999996 6433.139999999999 2404.3999999999996 6308.0599999999995 2408.0299999999997 6185.8099999999995 C 2415.2999999999997 5940.61 2427.33 5690.259999999999 2429.5899999999997 5454.839999999999 C 2429.7899999999995 5434.159999999999 2434.8799999999997 5420.5199999999995 2425.0499999999997 5409.44 C 2411.2699999999995 5393.9 2366.0499999999997 5391.629999999999 2344.47 5383.33 C 2281.91 5359.28 2234.79 5318.9 2195.7799999999997 5266.42 C 2188.7099999999996 5256.93 2180.72 5240.11 2170.7999999999997 5239.18 C 2149.47 5237.1900000000005 2128.0699999999997 5284.92 2117.4599999999996 5295.93 C 2081.9399999999996 5332.8 2042.6499999999996 5370.16 1991.4599999999996 5387.87 C 1961.4599999999996 5398.25 1921.9799999999996 5395.86 1909.7399999999996 5419.65 C 1898.8199999999995 5440.9 1905.6599999999996 5527.45 1908.6099999999994 5570.61 C 1912.3499999999995 5625.53 1910.6299999999994 5678.7699999999995 1910.8799999999994 5724.98 C 1911.8299999999995 5901.95 1923.6899999999994 6067.48 1929.0399999999995 6240.299999999999 C 1940.2799999999995 6603.419999999999 1971.6599999999994 6964.099999999999 2022.1099999999994 7279.999999999999 C 2047.4999999999995 7438.969999999999 2092.4999999999995 7596.639999999999 2128.8099999999995 7741.959999999999 C 2132.1799999999994 7755.489999999999 2145.9599999999996 7803.379999999999 2159.4499999999994 7806.659999999999" stroke-linecap="round"/>
</g>
		<g transform="matrix(0.13 0 0 -0.13 -3.32 -174.37)">
<path style="stroke: none; stroke-width: 1; stroke-dasharray: none; stroke-linecap: butt; stroke-dashoffset: 0; stroke-linejoin: miter; stroke-miterlimit: 4; fill: rgb(35,31,32); fill-rule: evenodd; opacity: 1;" vector-effect="non-scaling-stroke" transform=" translate(-2968.87, -5803.32)" d="M 3057.28 4688.68 C 3079.6800000000003 4706.18 3121.6600000000003 4725.16 3128.7900000000004 4754.52 C 3136.1100000000006 4784.67 3126.9900000000002 4831.1900000000005 3128.7900000000004 4869.150000000001 C 3130.6600000000003 4908.88 3128.7900000000004 4949.320000000001 3128.7900000000004 4984.93 C 3128.8000000000006 5211.5 3129.3500000000004 5443.240000000001 3119.7100000000005 5667.09 C 3117.5000000000005 5718.45 3111.7600000000007 5765.74 3111.7600000000007 5814.650000000001 C 3111.7600000000007 5909.670000000001 3107.2000000000007 6009.06 3101.540000000001 6102.950000000001 C 3084.9500000000007 6378.900000000001 3050.600000000001 6645.400000000001 2983.500000000001 6867.9800000000005 C 2982.360000000001 6867.97 2982.150000000001 6868.900000000001 2981.230000000001 6869.110000000001 C 2979.800000000001 6868.650000000001 2978.9100000000008 6867.650000000001 2978.960000000001 6865.710000000001 C 2973.070000000001 6418.970000000001 2977.840000000001 5957.710000000001 2977.820000000001 5515.000000000001 C 2977.820000000001 5225.390000000001 2970.0800000000013 4916.050000000001 2980.090000000001 4630.790000000001 C 3009.220000000001 4642.130000000001 3030.690000000001 4667.920000000001 3057.280000000001 4688.680000000001 z M 3306.9900000000002 4937.26 C 3358.0200000000004 4939.41 3411.1600000000003 5000.320000000001 3464.7700000000004 4970.17 C 3477.9300000000003 4962.77 3483.8100000000004 4912.12 3476.1100000000006 4886.18 C 3467.4200000000005 4856.900000000001 3447.8000000000006 4832.950000000001 3423.9000000000005 4807.860000000001 C 3406.7700000000004 4789.89 3371.3700000000003 4749.14 3344.4400000000005 4749.97 C 3320.8900000000003 4750.7 3291.6500000000005 4782.72 3274.0700000000006 4799.92 C 3251.080000000001 4822.42 3231.1100000000006 4844.02 3220.7200000000007 4865.75 C 3213.5100000000007 4880.84 3214.2100000000005 4921.77 3188.9500000000007 4916.82 C 3170.5500000000006 4913.23 3181.1700000000005 4832.19 3179.8600000000006 4804.46 C 3178.0900000000006 4766.91 3180.8000000000006 4706.81 3165.1100000000006 4686.41 C 3153.6300000000006 4671.5 3126.5700000000006 4666.5 3107.2200000000007 4655.7699999999995 C 3070.4100000000008 4635.33 3038.4500000000007 4609.009999999999 3010.7400000000007 4575.169999999999 C 3002.8000000000006 4565.48 2987.7800000000007 4529.239999999999 2968.750000000001 4529.7699999999995 C 2953.810000000001 4530.19 2938.000000000001 4562.11 2925.610000000001 4576.3099999999995 C 2895.350000000001 4610.999999999999 2867.930000000001 4634.549999999999 2828.000000000001 4658.039999999999 C 2811.070000000001 4667.989999999999 2780.780000000001 4673.939999999999 2771.250000000001 4689.819999999999 C 2755.890000000001 4715.369999999999 2761.2000000000007 4797.739999999999 2761.030000000001 4840.779999999999 C 2760.950000000001 4861.469999999998 2773.5400000000013 4919.739999999999 2745.1400000000012 4919.0999999999985 C 2724.220000000001 4918.619999999999 2726.990000000001 4891.759999999998 2719.030000000001 4873.689999999999 C 2707.240000000001 4846.899999999999 2687.0800000000013 4826.819999999999 2665.680000000001 4803.319999999999 C 2650.590000000001 4786.739999999999 2612.570000000001 4749.489999999999 2591.910000000001 4751.109999999999 C 2563.180000000001 4753.359999999999 2528.130000000001 4795.3499999999985 2512.450000000001 4812.399999999999 C 2491.3100000000013 4835.399999999999 2467.340000000001 4864.729999999999 2460.240000000001 4899.799999999998 C 2456.3300000000013 4919.129999999998 2457.3900000000012 4962.009999999998 2469.320000000001 4972.439999999999 C 2487.6400000000012 4988.469999999998 2538.6200000000013 4975.109999999999 2555.590000000001 4966.769999999999 C 2573.940000000001 4957.749999999998 2610.240000000001 4933.289999999999 2628.230000000001 4938.3899999999985 C 2641.580000000001 4942.1799999999985 2647.330000000001 4980.109999999999 2652.070000000001 4994.009999999998 C 2658.770000000001 5013.689999999999 2666.940000000001 5038.999999999998 2669.090000000001 5055.299999999998 C 2683.280000000001 5163.029999999998 2632.670000000001 5246.089999999998 2585.1000000000013 5293.669999999998 C 2572.5400000000013 5306.209999999998 2555.8900000000012 5319.079999999998 2537.430000000001 5331.119999999998 C 2522.3500000000013 5340.949999999998 2493.5600000000013 5351.009999999998 2488.6200000000013 5366.309999999998 C 2481.300000000001 5388.949999999998 2495.860000000001 5443.709999999997 2499.970000000001 5472.999999999997 C 2518.570000000001 5605.599999999998 2537.320000000001 5723.999999999997 2570.340000000001 5833.949999999997 C 2575.3700000000013 5850.699999999997 2576.200000000001 5881.639999999997 2591.910000000001 5883.889999999997 C 2609.410000000001 5886.389999999997 2609.8700000000013 5855.5899999999965 2613.470000000001 5840.759999999997 C 2650.050000000001 5690.2999999999965 2689.530000000001 5491.179999999997 2703.1400000000012 5311.819999999996 C 2704.450000000001 5294.499999999996 2706.010000000001 5242.849999999996 2714.490000000001 5232.369999999996 C 2720.430000000001 5225.029999999996 2748.740000000001 5224.169999999996 2755.360000000001 5230.099999999996 C 2767.520000000001 5241.019999999996 2759.770000000001 5339.539999999995 2759.8900000000012 5366.309999999996 C 2760.970000000001 5588.929999999996 2763.9000000000015 5834.139999999996 2778.0600000000013 6062.089999999996 C 2784.3900000000012 6164.1699999999955 2786.5000000000014 6260.249999999995 2797.3500000000013 6360.609999999995 C 2823.840000000001 6605.629999999996 2858.490000000001 6822.339999999995 2936.9600000000014 7020.079999999995 C 2942.1500000000015 7033.149999999995 2951.2100000000014 7075.899999999995 2966.4700000000016 7076.829999999995 C 2989.3800000000015 7078.229999999995 2987.7100000000014 7048.089999999996 2992.5800000000017 7033.689999999995 C 3003.420000000002 7001.7099999999955 3016.920000000002 6971.269999999995 3027.7600000000016 6940.619999999995 C 3130.0100000000016 6651.7099999999955 3154.4500000000016 6267.019999999995 3167.3800000000015 5889.559999999996 C 3173.8000000000015 5702.229999999996 3175.3300000000013 5513.829999999996 3177.6000000000013 5324.309999999996 C 3177.930000000001 5296.469999999996 3171.0800000000013 5243.319999999996 3181.0000000000014 5230.099999999996 C 3186.3100000000013 5223.019999999996 3211.6400000000012 5218.489999999996 3221.8700000000013 5228.9599999999955 C 3231.070000000001 5238.399999999995 3232.700000000001 5294.589999999996 3234.3500000000013 5314.099999999996 C 3242.1400000000012 5406.399999999996 3249.910000000001 5483.829999999995 3266.1200000000013 5572.879999999996 C 3281.2900000000013 5656.149999999996 3294.470000000001 5734.379999999996 3314.930000000001 5814.649999999996 C 3322.6200000000013 5844.769999999996 3342.6900000000014 5923.859999999996 3361.470000000001 5855.509999999996 C 3394.7900000000013 5734.269999999996 3425.3100000000013 5601.009999999996 3438.650000000001 5448.029999999995 C 3440.820000000001 5423.259999999995 3454.930000000001 5386.319999999995 3448.870000000001 5364.039999999995 C 3443.020000000001 5342.489999999995 3405.210000000001 5335.289999999995 3384.170000000001 5322.039999999995 C 3327.1600000000008 5286.139999999996 3272.380000000001 5194.289999999995 3267.270000000001 5104.109999999995 C 3263.640000000001 5040.359999999995 3285.370000000001 4988.859999999995 3306.9900000000007 4937.259999999995" stroke-linecap="round"/>
</g>
		<g transform="matrix(0.13 0 0 -0.13 -101.43 2.17)">
<path style="stroke: none; stroke-width: 1; stroke-dasharray: none; stroke-linecap: butt; stroke-dashoffset: 0; stroke-linejoin: miter; stroke-miterlimit: 4; fill: rgb(35,31,32); fill-rule: evenodd; opacity: 1;" vector-effect="non-scaling-stroke" transform=" translate(-2233.11, -4490.89)" d="M 1914.28 5302.74 C 2040.6299999999999 5312.62 2112.74 5219.38 2129.94 5116.599999999999 C 2135.63 5082.61 2125.58 5026.5599999999995 2177.61 5035.999999999999 C 2202.67 5040.5599999999995 2204.55 5076.219999999999 2208.26 5107.509999999999 C 2217.78 5187.799999999999 2264.73 5260.199999999999 2327.44 5291.4 C 2334.23 5294.7699999999995 2336.4500000000003 5296.08 2345.6 5298.2 C 2456.79 5324.03 2547.5699999999997 5250.42 2579.42 5176.75 C 2586.71 5159.9 2620.39 5048.29 2579.42 5040.55 C 2561.37 5037.13 2541.16 5049.81 2520.4 5050.76 C 2392.2400000000002 5056.63 2312.8900000000003 4986.46 2266.15 4905.4800000000005 C 2260.81 4896.22 2243.77 4866.160000000001 2246.85 4850.990000000001 C 2249.7 4836.9800000000005 2280.87 4833.760000000001 2295.66 4829.43 C 2312.71 4824.43 2334.2799999999997 4818.030000000001 2341.06 4804.46 C 2353.58 4779.41 2349.38 4733.97 2352.41 4706.84 C 2355.5499999999997 4678.81 2371.0699999999997 4649.58 2380.79 4627.39 C 2433.38 4507.25 2528.04 4403.650000000001 2636.17 4343.63 C 2686.07 4315.93 2720.9900000000002 4316.29 2731.52 4242.61 C 2733.7599999999998 4226.86 2750.49 4176.82 2737.19 4166.5599999999995 C 2718.9 4152.44 2650.28 4189.089999999999 2636.17 4196.07 C 2442.59 4291.8099999999995 2332.1400000000003 4423.95 2240.04 4618.3099999999995 C 2226.45 4646.99 2219.16 4698.91 2190.1 4704.57 C 2172.23 4708.049999999999 2154.39 4694.9 2150.37 4684.139999999999 C 2136.67 4647.48 2172.68 4594.73 2183.29 4569.499999999999 C 2231.16 4455.729999999999 2284.48 4384.569999999999 2364.9 4297.089999999999 C 2446.77 4208.029999999999 2563.77 4142.8099999999995 2691.79 4093.9099999999994 C 2706.7 4088.2199999999993 2736.81 4083.1199999999994 2741.73 4068.9399999999996 C 2746.38 4055.5499999999997 2741.23 4035.0999999999995 2738.33 4023.5399999999995 C 2733.75 4005.2099999999996 2714.31 3945.6899999999996 2692.92 3940.6899999999996 C 2669.87 3935.2899999999995 2635.4 3957.0299999999997 2618.01 3963.3799999999997 C 2567.09 3981.9999999999995 2530.73 4001.0499999999997 2484.0800000000004 4024.68 C 2464.57 4034.56 2438.3400000000006 4057.48 2419.3800000000006 4056.46 C 2402.2300000000005 4055.53 2388.640000000001 4029.28 2381.9200000000005 4019 C 2357.9400000000005 3982.34 2341.4900000000007 3933.4 2347.8700000000003 3868.04 C 2349.8700000000003 3847.57 2359.05 3819.73 2366.03 3799.94 C 2372.75 3780.88 2392.02 3759.23 2389.8700000000003 3738.65 C 2387.1400000000003 3712.48 2338.4500000000003 3689.81 2308.1400000000003 3681.89 C 2281.78 3675 2247.2000000000003 3679.12 2224.1500000000005 3685.2999999999997 C 2169.5400000000004 3699.9199999999996 2109.8000000000006 3759.8199999999997 2103.8300000000004 3826.04 C 2095.6800000000003 3916.54 2146.0400000000004 3961.41 2178.7500000000005 4012.19 C 2203.6900000000005 4050.92 2234.3500000000004 4085.36 2272.9600000000005 4113.21 C 2283.0900000000006 4120.52 2305.6900000000005 4135.34 2305.8700000000003 4144.99 C 2306.1600000000003 4159.5599999999995 2258.5400000000004 4193.46 2247.9900000000002 4204.01 C 2148.5800000000004 4303.42 2080.4100000000003 4414.81 2022.1100000000001 4557.02 C 2011.69 4582.43 2001.38 4612.85 1994.8700000000001 4645.55 C 1989.3100000000002 4673.46 1974.2 4714.41 1981.2500000000002 4745.43 C 1987.4800000000002 4772.83 2022.8500000000001 4788.280000000001 2044.8100000000002 4804.46 C 2055.54 4812.36 2076.7000000000003 4820.06 2078.86 4830.56 C 2083.5 4853.09 2054.38 4913.18 2044.8100000000002 4929.31 C 2005.42 4995.740000000001 1918.3100000000002 5058.71 1812.13 5053.030000000001 C 1789.72 5051.830000000001 1754.89 5040.4400000000005 1739.48 5046.22 C 1706.8700000000001 5058.47 1730.14 5141.83 1738.35 5167.67 C 1760.79 5238.35 1824.4299999999998 5295.72 1914.28 5302.74" stroke-linecap="round"/>
</g>
		<g transform="matrix(0.13 0 0 -0.13 94.98 2.88)">
<path style="stroke: none; stroke-width: 1; stroke-dasharray: none; stroke-linecap: butt; stroke-dashoffset: 0; stroke-linejoin: miter; stroke-miterlimit: 4; fill: rgb(35,31,32); fill-rule: evenodd; opacity: 1;" vector-effect="non-scaling-stroke" transform=" translate(-3706.05, -4485.42)" d="M 3690.63 4844.18 C 3663.27 4946.64 3590.48 5030.63 3474.98 5046.22 C 3455.25 5048.89 3429.4900000000002 5049.67 3409.14 5047.360000000001 C 3390.43 5045.2300000000005 3366.7999999999997 5034.620000000001 3352.39 5042.820000000001 C 3320.5499999999997 5060.93 3349.3399999999997 5156.070000000001 3358.0699999999997 5176.750000000001 C 3386.2699999999995 5243.580000000001 3454.45 5294.030000000001 3544.22 5298.200000000001 C 3618.6699999999996 5301.660000000001 3651.3799999999997 5263.6 3684.96 5218.750000000001 C 3706.9 5189.430000000001 3730.05 5140.540000000001 3732.64 5099.570000000001 C 3734.79 5065.3 3733.0299999999997 5021.9400000000005 3778.04 5032.6 C 3814 5041.120000000001 3802.4 5085.06 3810.95 5122.27 C 3835.45 5228.88 3905.66 5316.740000000001 4048.1699999999996 5297.070000000001 C 4103.75 5289.400000000001 4159.429999999999 5242.170000000001 4185.5199999999995 5198.320000000001 C 4196.749999999999 5179.4400000000005 4206.879999999999 5154.68 4211.62 5121.14 C 4215.51 5093.71 4221.099999999999 5046.85 4198.01 5039.410000000001 C 4183.360000000001 5034.700000000001 4148.360000000001 5046.760000000001 4131.04 5047.360000000001 C 4014.27 5051.400000000001 3920.27 4982.01 3883.59 4902.070000000001 C 3875.36 4884.120000000001 3855.9900000000002 4850.01 3862.03 4826.02 C 3866.5 4808.27 3899.13 4797.7300000000005 3913.11 4787.43 C 3927.7200000000003 4776.66 3952.28 4760.530000000001 3957.3700000000003 4742.030000000001 C 3966.1700000000005 4710.090000000001 3950.03 4670.090000000001 3943.7500000000005 4642.14 C 3908.9100000000003 4487.030000000001 3835.3900000000003 4365.46 3746.2500000000005 4260.77 C 3729.7200000000003 4241.35 3710.7800000000007 4219.030000000001 3691.7700000000004 4199.4800000000005 C 3680.3900000000003 4187.76 3635.1200000000003 4154.6 3635.0200000000004 4141.59 C 3634.9500000000003 4131.59 3655.9700000000003 4119.9400000000005 3664.5300000000007 4113.21 C 3719.9200000000005 4069.7200000000003 3757.8400000000006 4020.18 3796.1900000000005 3957.71 C 3819.7500000000005 3919.34 3845.3300000000004 3885.57 3834.7900000000004 3815.82 C 3822.0400000000004 3731.57 3730.6100000000006 3642.63 3621.4000000000005 3679.6200000000003 C 3596.6800000000007 3687.9900000000002 3555.0200000000004 3709.4500000000003 3553.2900000000004 3736.3700000000003 C 3551.9400000000005 3757.4300000000003 3574.2000000000003 3782.1600000000003 3581.6700000000005 3803.34 C 3602.7900000000004 3863.25 3599.0000000000005 3947.19 3570.3200000000006 3999.7000000000003 C 3563.0300000000007 4013.0400000000004 3541.6800000000007 4053.92 3521.5100000000007 4055.3300000000004 C 3501.7400000000007 4056.6900000000005 3472.040000000001 4030.0600000000004 3456.8200000000006 4021.2700000000004 C 3414.1300000000006 3996.6200000000003 3372.640000000001 3978.8100000000004 3321.7500000000005 3961.1200000000003 C 3303.2500000000005 3954.6800000000003 3271.5500000000006 3934.3800000000006 3245.6900000000005 3941.82 C 3230.4500000000007 3946.19 3216.6800000000003 3973.9100000000003 3210.5100000000007 3992.8900000000003 C 3204.890000000001 4010.2100000000005 3191.7000000000007 4043.9800000000005 3199.1600000000008 4064.4100000000003 C 3206.730000000001 4085.1400000000003 3267.6600000000008 4096.35 3289.960000000001 4105.27 C 3444.620000000001 4167.030000000001 3568.540000000001 4266.92 3659.9900000000007 4392.4400000000005 C 3709.6700000000005 4460.620000000001 3743.4700000000007 4530.540000000001 3778.040000000001 4610.360000000001 C 3783.900000000001 4623.89 3795.330000000001 4649.1900000000005 3792.790000000001 4668.250000000001 C 3789.960000000001 4689.510000000001 3762.050000000001 4705.520000000001 3740.580000000001 4696.620000000001 C 3717.480000000001 4687.06 3709.500000000001 4632.300000000001 3697.4500000000007 4604.6900000000005 C 3642.560000000001 4478.89 3567.080000000001 4379.7300000000005 3468.1600000000008 4297.09 C 3419.640000000001 4256.55 3366.1300000000006 4222.5 3302.4500000000007 4194.9400000000005 C 3280.6800000000007 4185.51 3227.8000000000006 4150.960000000001 3205.9700000000007 4162.02 C 3188.350000000001 4170.9400000000005 3202.3800000000006 4217.950000000001 3205.9700000000007 4235.790000000001 C 3218.8200000000006 4299.6900000000005 3233.060000000001 4306.530000000001 3282.020000000001 4331.140000000001 C 3397.4100000000008 4389.140000000001 3498.4100000000008 4485.440000000001 3553.290000000001 4608.090000000001 C 3569.500000000001 4644.310000000001 3587.940000000001 4694.380000000001 3591.880000000001 4737.490000000001 C 3593.690000000001 4757.2300000000005 3588.8900000000012 4780.320000000001 3595.290000000001 4795.370000000001 C 3608.650000000001 4826.830000000001 3663.820000000001 4823.640000000001 3690.630000000001 4844.180000000001" stroke-linecap="round"/>
</g>
		<g transform="matrix(0.13 0 0 -0.13 -2.95 86.01)">
<path style="stroke: none; stroke-width: 1; stroke-dasharray: none; stroke-linecap: butt; stroke-dashoffset: 0; stroke-linejoin: miter; stroke-miterlimit: 4; fill: rgb(35,31,32); fill-rule: evenodd; opacity: 1;" vector-effect="non-scaling-stroke" transform=" translate(-2970.14, -3863.32)" d="M 3077.71 3732.97 C 3076.17 3678.3999999999996 3097.98 3634.5299999999997 3128.79 3601.2999999999997 C 3136.98 3592.4599999999996 3147.63 3584.3799999999997 3158.3 3580.87 C 3190.29 3570.37 3217.17 3600.41 3245.69 3588.81 C 3260.53 3582.79 3276.25 3526.06 3268.4 3505.96 C 3261.46 3488.17 3236.19 3487.06 3211.64 3483.26 C 3117.3199999999997 3468.6600000000003 3074.1 3431.2700000000004 3062.95 3327.76 C 3056.39 3266.8300000000004 3027.35 3199.92 3002.79 3148.42 C 2997.0299999999997 3136.32 2985.5099999999998 3101.7000000000003 2969.88 3101.88 C 2950.8 3102.09 2932.87 3155.17 2925.61 3173.3900000000003 C 2908.3900000000003 3216.6500000000005 2891.2400000000002 3259.1700000000005 2879.08 3310.7300000000005 C 2874.45 3330.3100000000004 2877.45 3352.7200000000003 2872.27 3373.1600000000003 C 2859.32 3424.2100000000005 2818.08 3462.6000000000004 2767.84 3476.4500000000003 C 2744.59 3482.8500000000004 2686.9900000000002 3481.01 2673.63 3499.1400000000003 C 2660.6 3516.8500000000004 2678.2000000000003 3590.4400000000005 2695.2000000000003 3594.5000000000005 C 2719.5600000000004 3600.3000000000006 2754.0800000000004 3574.6300000000006 2783.7300000000005 3580.8700000000003 C 2796.3700000000003 3583.53 2811.8800000000006 3598.6900000000005 2821.1900000000005 3611.5200000000004 C 2843.9500000000007 3642.8900000000003 2862.9300000000003 3684.4900000000002 2866.5900000000006 3731.8300000000004 C 2772.0300000000007 3723.4100000000003 2697.2900000000004 3748.2300000000005 2680.4400000000005 3829.4500000000003 C 2676.9800000000005 3846.15 2676.5200000000004 3870.6600000000003 2686.1200000000003 3874.8500000000004 C 2700.76 3881.2400000000002 2706.4900000000002 3866.6800000000003 2721.3 3868.0400000000004 C 2750.4 3870.7000000000003 2775.4900000000002 3918.4600000000005 2787.13 3942.9500000000003 C 2825.5 4023.65 2825.63 4174.110000000001 2801.8900000000003 4273.25 C 2777.1800000000003 4376.45 2715.05 4451.07 2623.6900000000005 4493.45 C 2599.8500000000004 4504.51 2522.0600000000004 4505.5599999999995 2519.2600000000007 4529.7699999999995 C 2517.2300000000005 4547.44 2548.350000000001 4575.53 2563.5300000000007 4586.53 C 2599.140000000001 4612.32 2636.3200000000006 4628.61 2696.330000000001 4623.98 C 2739.630000000001 4620.639999999999 2779.5300000000007 4604.78 2807.5700000000006 4586.53 C 2863.5700000000006 4550.05 2917.7400000000007 4484.44 2930.1500000000005 4406.05 C 2935.8500000000004 4370.04 2930.1200000000003 4313.39 2981.2300000000005 4326.6 C 3016.5000000000005 4335.7300000000005 3005.1900000000005 4395.35 3015.2800000000007 4435.570000000001 C 3023.830000000001 4469.630000000001 3053.4900000000007 4511.380000000001 3075.4400000000005 4537.72 C 3122.7900000000004 4594.54 3233.5600000000004 4648.12 3327.4200000000005 4612.63 C 3340.6300000000006 4607.64 3377.3400000000006 4586.22 3393.2500000000005 4570.64 C 3401.7600000000007 4562.3 3425.2100000000005 4539.52 3420.5000000000005 4520.6900000000005 C 3416.9600000000005 4506.6 3337.9300000000003 4499.89 3322.8800000000006 4494.59 C 3257.6100000000006 4471.58 3202.7700000000004 4423.64 3171.9100000000008 4364.06 C 3107.9500000000007 4240.56 3097.690000000001 4019.3200000000006 3173.060000000001 3906.6300000000006 C 3180.5300000000007 3895.4500000000007 3197.870000000001 3873.7000000000007 3213.920000000001 3871.4500000000007 C 3231.4100000000008 3868.980000000001 3239.950000000001 3884.310000000001 3254.780000000001 3878.2600000000007 C 3273.530000000001 3870.5900000000006 3259.450000000001 3820.6300000000006 3252.510000000001 3803.3400000000006 C 3229.0800000000013 3744.9900000000007 3160.490000000001 3718.2200000000007 3077.710000000001 3732.9700000000007" stroke-linecap="round"/>
</g>
		<g transform="matrix(0.13 0 0 -0.13 -9.19 213.4)">
<path style="stroke: none; stroke-width: 1; stroke-dasharray: none; stroke-linecap: butt; stroke-dashoffset: 0; stroke-linejoin: miter; stroke-miterlimit: 4; fill: rgb(35,31,32); fill-rule: evenodd; opacity: 1;" vector-effect="non-scaling-stroke" transform=" translate(-2981.03, -2885.75)" d="M 1361.51 1994.07 C 1385.24 2002.25 1397.29 2026.49 1413.73 2044.02 C 1532.15 2170.31 1636.83 2311.26 1758.78 2437.87 C 1826.53 2508.22 1889.58 2586.97 1955.1399999999999 2663.75 C 2001.8 2718.39 2052.27 2774.46 2101.5699999999997 2834.01 C 2115.45 2850.7900000000004 2147.4799999999996 2875.3500000000004 2149.24 2895.3 C 2151.95 2926.02 2120.62 2972.3900000000003 2109.5099999999998 3007.67 C 2097.33 3046.38 2066.8799999999997 3077.91 2073.1899999999996 3121.1800000000003 C 2081.97 3181.4400000000005 2101.5699999999997 3228.15 2101.5699999999997 3291.4300000000003 C 2101.5699999999997 3493.3500000000004 2012.3499999999997 3595.7900000000004 1929.0399999999997 3714.8100000000004 C 1902.0799999999997 3753.3100000000004 1867.8799999999997 3786.3 1841.6399999999996 3826.0400000000004 C 1815.4299999999996 3865.7200000000003 1793.3599999999997 3908.4600000000005 1770.1299999999997 3953.1700000000005 C 1721.5199999999998 4046.7300000000005 1697.5899999999997 4265.88 1800.7799999999997 4319.790000000001 C 1833.2499999999998 4336.750000000001 1907.6099999999997 4318.210000000001 1933.5799999999997 4306.170000000001 C 1962.5899999999997 4292.710000000001 2005.8199999999997 4266.110000000001 2011.8899999999996 4234.660000000001 C 2015.7799999999997 4214.580000000001 2006.6399999999996 4187.320000000001 2005.0899999999997 4163.150000000001 C 2001.9199999999996 4114.030000000001 2017.4899999999998 4067.0200000000004 2034.5999999999997 4033.7500000000005 C 2042.9199999999996 4017.5600000000004 2061.7799999999997 3999.2300000000005 2062.97 3982.6800000000003 C 2064.3799999999997 3963.2200000000003 2049.79 3950.01 2044.8099999999997 3937.28 C 2011.2099999999998 3851.2000000000003 2040.9199999999996 3754.8300000000004 2079.9999999999995 3698.92 C 2122.6699999999996 3637.87 2194.5199999999995 3594.6800000000003 2303.5999999999995 3604.71 C 2337.1399999999994 3607.8 2368.8099999999995 3621.16 2390.9999999999995 3635.36 C 2411.2499999999995 3648.3 2435.8199999999997 3680.07 2460.2399999999993 3684.1600000000003 C 2489.459999999999 3689.05 2514.3699999999994 3665.3500000000004 2539.6999999999994 3654.65 C 2555.2599999999993 3648.08 2608.1599999999994 3632.79 2613.4699999999993 3618.32 C 2618.8199999999993 3603.76 2606.0999999999995 3587.55 2600.9899999999993 3572.92 C 2583.5399999999995 3523.02 2593.3299999999995 3460.84 2624.8199999999993 3434.4500000000003 C 2666.7199999999993 3399.3500000000004 2768.4299999999994 3423.2100000000005 2792.8099999999995 3366.3500000000004 C 2807.2099999999996 3332.7700000000004 2803.3499999999995 3289.57 2813.2399999999993 3257.3900000000003 C 2842.7799999999993 3161.1900000000005 2880.419999999999 3068.78 2935.8299999999995 2995.1900000000005 C 2945.4799999999996 2982.3600000000006 2968.3599999999997 2977.5100000000007 2972.1499999999996 2959.9900000000007 C 2977.45 2935.4900000000007 2971.5499999999997 2897.2100000000005 2972.1499999999996 2866.9300000000007 C 2981.2 2410.3200000000006 2965.1699999999996 1909.8300000000008 2975.5599999999995 1461.7300000000007 C 2999.9699999999993 1490.7900000000006 2995.8799999999997 1531.5600000000006 3003.9299999999994 1567.2900000000006 C 3028.6399999999994 1677.0100000000007 3049.0599999999995 1794.3600000000006 3073.1599999999994 1899.8600000000006 C 3073.4999999999995 1901.3000000000006 3074.2799999999993 1904.1900000000005 3074.3099999999995 1904.4000000000005 C 3101.5999999999995 2102.0700000000006 3148.0199999999995 2285.0100000000007 3182.1299999999997 2474.1900000000005 C 3185.5099999999998 2492.8900000000003 3191.22 2516.9700000000007 3196.8799999999997 2538.8900000000003 C 3208.5199999999995 2583.9200000000005 3211.8999999999996 2626.6200000000003 3222.9999999999995 2671.6900000000005 C 3228.9599999999996 2695.9300000000003 3241.2399999999993 2726.6400000000003 3234.3499999999995 2751.1500000000005 C 3228.4699999999993 2772.0500000000006 3194.6999999999994 2795.3400000000006 3178.7299999999996 2811.3000000000006 C 3137.4499999999994 2852.5900000000006 3102.3199999999997 2882.0300000000007 3060.6799999999994 2923.6800000000007 C 3045.8299999999995 2938.5300000000007 3003.419999999999 2968.830000000001 3005.0699999999993 2990.6500000000005 C 3007.039999999999 3016.8200000000006 3039.8499999999995 3047.5500000000006 3051.5999999999995 3071.2300000000005 C 3080.8199999999993 3130.1400000000003 3110.2199999999993 3184.1100000000006 3125.3799999999997 3251.7000000000003 C 3134.45 3292.1800000000003 3134.1299999999997 3368.4600000000005 3165.1099999999997 3389.05 C 3207.2099999999996 3417.03 3290.0499999999997 3406.9700000000003 3322.8799999999997 3442.4 C 3341.5499999999997 3462.55 3345.7299999999996 3488.89 3345.5899999999997 3525.26 C 3345.4599999999996 3554.07 3321.5499999999997 3584.76 3326.2899999999995 3610.38 C 3330.1699999999996 3631.3900000000003 3381.1599999999994 3642.2200000000003 3398.9299999999994 3650.11 C 3423.9699999999993 3661.23 3450.6799999999994 3685 3478.379999999999 3681.8900000000003 C 3494.129999999999 3680.1200000000003 3509.629999999999 3657.8500000000004 3522.649999999999 3648.9800000000005 C 3568.629999999999 3617.6600000000003 3618.6999999999994 3590.0000000000005 3703.129999999999 3599.0400000000004 C 3789.8899999999994 3608.3100000000004 3844.059999999999 3665.3600000000006 3882.459999999999 3727.2900000000004 C 3912.8199999999993 3776.2700000000004 3919.0299999999993 3857.2300000000005 3899.479999999999 3919.1100000000006 C 3894.5699999999993 3934.6800000000007 3876.329999999999 3963.7700000000004 3880.189999999999 3978.140000000001 C 3889.059999999999 4011.080000000001 3920.209999999999 4044.3800000000006 3928.9899999999993 4082.560000000001 C 3933.8499999999995 4103.630000000001 3936.5699999999993 4127.310000000001 3936.939999999999 4151.800000000001 C 3937.3199999999993 4177.010000000001 3924.669999999999 4211.140000000001 3933.539999999999 4234.660000000001 C 3950.979999999999 4280.930000000001 4058.5899999999992 4335.540000000001 4135.579999999999 4314.110000000001 C 4158.949999999999 4307.620000000001 4177.159999999999 4272.84 4187.789999999999 4251.6900000000005 C 4198.799999999999 4229.780000000001 4207.939999999999 4197.8 4212.759999999999 4168.830000000001 C 4224.389999999999 4098.970000000001 4204.57 4028.4300000000007 4186.65 3982.6800000000007 C 4144.11 3874.040000000001 4083.7299999999996 3800.290000000001 4019.7999999999997 3717.0700000000006 C 3955.5399999999995 3633.4400000000005 3892.1499999999996 3555.6700000000005 3863.16 3440.120000000001 C 3831.71 3314.7400000000007 3870.3599999999997 3176.2400000000007 3918.7799999999997 3088.2600000000007 C 3994.4799999999996 2950.6900000000005 4087.43 2821.9100000000008 4163.96 2683.0500000000006 C 4189.2300000000005 2637.1900000000005 4222.07 2595.6800000000007 4246.82 2550.2500000000005 C 4297.13 2457.8800000000006 4357.32 2371.3700000000003 4410.25 2281.2300000000005 C 4463.56 2190.4800000000005 4514.98 2099.1200000000003 4577.11 2015.6400000000006 C 4544.4 2155.1300000000006 4481.75 2283.5600000000004 4445.45 2427.6600000000008 C 4434.179999999999 2472.3600000000006 4415.51 2520.770000000001 4398.91 2563.8600000000006 C 4365.5199999999995 2650.5400000000004 4341.83 2743.5700000000006 4308.11 2838.5500000000006 C 4286.33 2899.890000000001 4260.53 2973.9800000000005 4238.87 3043.9900000000007 C 4231.67 3067.2300000000005 4222.29 3103.1900000000005 4208.22 3114.370000000001 C 4180.860000000001 3136.1100000000006 4123.66 3136.1600000000008 4084.5000000000005 3149.5500000000006 C 4055.3400000000006 3159.5200000000004 3972.3400000000006 3168.2400000000007 3956.2400000000007 3191.5500000000006 C 3941.7600000000007 3212.5000000000005 3940.4000000000005 3248.7200000000007 3932.4000000000005 3276.6700000000005 C 3904.8800000000006 3372.7800000000007 3947.5700000000006 3480.1300000000006 3983.4800000000005 3538.8700000000003 C 4038.1800000000003 3628.36 4111.240000000001 3704.8900000000003 4168.500000000001 3787.4500000000003 C 4198.310000000001 3830.4500000000003 4220.110000000001 3874.0200000000004 4245.670000000001 3927.0600000000004 C 4256.360000000001 3949.2400000000002 4269.830000000001 3982.3200000000006 4272.920000000001 4008.78 C 4276.520000000001 4039.82 4288.060000000001 4068.5600000000004 4286.540000000001 4102.99 C 4281.720000000001 4212.65 4269.810000000001 4288.61 4212.760000000001 4350.44 C 4199.410000000001 4364.9 4157.590000000001 4381.98 4157.140000000001 4402.65 C 4156.630000000001 4426.46 4204.750000000001 4462.08 4224.1100000000015 4474.16 C 4253.910000000002 4492.73 4281.460000000002 4508.73 4320.590000000001 4516.16 C 4385.6100000000015 4528.49 4474.630000000001 4524.54 4516.950000000001 4495.72 C 4578.300000000001 4453.96 4569.460000000001 4343.4800000000005 4552.14 4263.04 C 4535.22 4184.46 4494.02 4114.6 4486.31 4026.95 C 4467.29 3810.97 4574.64 3730.0299999999997 4715.59 3660.33 C 4782.01 3627.47 4848.1 3591.47 4911.95 3554.77 C 5104.7699999999995 3443.94 5298.51 3343.71 5499.91 3238.09 C 5457.3099999999995 3299.1400000000003 5381.8 3341.25 5327.38 3399.26 C 5300.84 3427.5600000000004 5267.12 3452.2700000000004 5237.71 3478.71 C 5120.02 3584.61 5004.72 3690.03 4880.17 3797.67 C 4866.27 3809.6800000000003 4849.96 3822.5 4834.77 3837.4 C 4821.780000000001 3850.13 4802.64 3872.2000000000003 4788.2300000000005 3874.85 C 4731.040000000001 3885.37 4666.610000000001 3821.89 4612.290000000001 3831.72 C 4578.790000000001 3837.79 4561.670000000001 3906.37 4556.680000000001 3946.3599999999997 C 4549.600000000001 4003.0899999999997 4564.970000000001 4051.14 4574.840000000001 4095.0499999999997 C 4589.050000000001 4158.299999999999 4617.440000000001 4219.889999999999 4632.720000000001 4292.549999999999 C 4635.090000000001 4303.7699999999995 4633.460000000001 4358.07 4648.620000000001 4360.65 C 4665.160000000001 4363.46 4671.570000000001 4329.94 4675.860000000001 4318.66 C 4695.51 4266.97 4698.960000000001 4200.24 4687.210000000001 4142.72 C 4678.820000000001 4101.68 4657.740000000001 4072.88 4653.160000000001 4038.2900000000004 C 4650.720000000001 4019.9400000000005 4648.9800000000005 3997.7400000000002 4646.35 3975.8700000000003 C 4644.400000000001 3959.7300000000005 4644.150000000001 3920.7900000000004 4652.02 3915.7200000000003 C 4662.89 3908.7000000000003 4707.93 3917.9100000000003 4724.67 3922.5200000000004 C 4746.7 3928.5900000000006 4764.41 3945.9500000000003 4784.82 3945.2200000000003 C 4805.58 3944.4900000000002 4833.62 3911.5200000000004 4850.65 3897.55 C 4871.75 3880.26 4892.4 3860.4 4909.679999999999 3844.2000000000003 C 4985.369999999999 3773.2200000000003 5066.73 3697.2200000000003 5148.049999999999 3630.8100000000004 C 5189.94 3596.6000000000004 5230.009999999999 3561.3300000000004 5267.23 3524.1100000000006 C 5341.23 3450.1100000000006 5427.04 3385.2800000000007 5505.589999999999 3310.7300000000005 C 5563.889999999999 3255.3800000000006 5622.339999999999 3204.9800000000005 5686.049999999999 3151.8200000000006 C 5695.299999999999 3144.100000000001 5744.9 3111.7100000000005 5737.129999999999 3092.8000000000006 C 5732.249999999999 3080.9000000000005 5704.879999999999 3090.4000000000005 5695.139999999999 3093.9400000000005 C 5597.789999999999 3129.2200000000007 5498.079999999999 3156.8100000000004 5398.889999999999 3194.9500000000007 C 5343.28 3216.330000000001 5285.079999999999 3235.000000000001 5227.499999999999 3250.5700000000006 C 5170.669999999999 3265.9400000000005 5113.129999999999 3288.2900000000004 5057.239999999999 3307.330000000001 C 4972.6399999999985 3336.140000000001 4882.649999999999 3369.340000000001 4792.769999999999 3398.130000000001 C 4728.499999999998 3418.720000000001 4662.229999999999 3447.510000000001 4594.1399999999985 3465.090000000001 C 4573.1399999999985 3470.510000000001 4539.789999999998 3479.960000000001 4531.709999999998 3491.200000000001 C 4517.009999999998 3511.630000000001 4528.129999999998 3563.700000000001 4506.739999999998 3576.3300000000013 C 4482.249999999998 3590.7900000000013 4406.149999999998 3570.490000000001 4384.149999999998 3564.9800000000014 C 4246.169999999998 3530.4400000000014 4154.189999999998 3459.3500000000013 4081.089999999998 3352.7300000000014 C 4070.189999999998 3336.8200000000015 4037.2699999999977 3290.8300000000013 4039.099999999998 3268.7300000000014 C 4041.539999999998 3239.1200000000013 4101.119999999998 3217.720000000001 4125.359999999998 3206.3000000000015 C 4152.729999999998 3193.4100000000017 4226.489999999998 3193.1900000000014 4244.539999999998 3173.3900000000017 C 4250.319999999998 3167.0300000000016 4254.609999999998 3143.2600000000016 4260.4299999999985 3130.2600000000016 C 4277.249999999998 3092.7500000000014 4296.759999999998 3040.3300000000017 4305.829999999998 3002.000000000002 C 4321.369999999998 2936.400000000002 4342.1799999999985 2881.690000000002 4361.459999999998 2826.0600000000018 C 4419.829999999998 2657.5700000000015 4471.359999999998 2472.400000000002 4533.979999999999 2301.670000000002 C 4554.259999999998 2246.3900000000017 4578.959999999998 2185.8300000000017 4591.869999999999 2128.000000000002 C 4605.049999999999 2068.980000000002 4632.719999999999 2009.8100000000018 4650.889999999999 1954.3400000000017 C 4662.8099999999995 1917.9500000000016 4681.099999999999 1866.4300000000017 4694.0199999999995 1823.8100000000018 C 4696.339999999999 1816.1700000000017 4708.37 1784.4700000000018 4697.419999999999 1778.4100000000017 C 4684.319999999999 1771.1500000000017 4666.859999999999 1802.8900000000017 4663.379999999999 1806.7900000000018 C 4631.5199999999995 1842.4700000000018 4600.139999999999 1878.0800000000017 4572.569999999999 1910.0700000000018 C 4533.299999999998 1955.6500000000017 4488.479999999999 2001.2900000000018 4451.119999999999 2047.4200000000017 C 4414.3499999999985 2092.8100000000018 4373.539999999999 2142.5700000000015 4330.799999999999 2185.8900000000017 C 4286.679999999999 2230.6100000000015 4252.029999999999 2283.2200000000016 4210.489999999999 2323.2400000000016 C 4167.729999999999 2364.4200000000014 4131.919999999999 2416.0500000000015 4089.039999999999 2460.5800000000017 C 4001.949999999999 2550.9900000000016 3934.179999999999 2642.0700000000015 3848.409999999999 2736.3900000000017 C 3827.949999999999 2758.8900000000017 3808.419999999999 2779.4700000000016 3788.249999999999 2805.6300000000015 C 3772.349999999999 2826.2700000000013 3730.769999999999 2857.3800000000015 3731.489999999999 2883.9500000000016 C 3732.269999999999 2911.960000000002 3751.569999999999 2936.7200000000016 3757.6099999999988 2969.0800000000017 C 3763.0799999999986 2998.420000000002 3775.1699999999987 3038.6800000000017 3765.549999999999 3068.960000000002 C 3759.259999999999 3088.760000000002 3719.1499999999987 3099.770000000002 3694.0399999999986 3105.290000000002 C 3662.4499999999985 3112.230000000002 3632.8999999999987 3117.380000000002 3604.3799999999987 3122.3100000000018 C 3436.8999999999987 3151.2400000000016 3288.8299999999986 3075.7800000000016 3207.1099999999988 2994.050000000002 C 3192.3999999999987 2979.350000000002 3158.069999999999 2952.670000000002 3158.299999999999 2931.620000000002 C 3158.639999999999 2899.2500000000023 3199.279999999999 2859.590000000002 3215.049999999999 2840.810000000002 C 3232.829999999999 2819.6500000000024 3287.4399999999987 2791.560000000002 3289.9599999999987 2762.5000000000023 C 3292.3299999999986 2735.1300000000024 3277.3099999999986 2684.370000000002 3268.3999999999987 2652.4000000000024 C 3247.6199999999985 2577.9700000000025 3240.759999999999 2506.5200000000023 3224.1299999999987 2433.330000000002 C 3215.639999999999 2395.9800000000023 3215.4399999999987 2357.6700000000023 3204.8299999999986 2322.100000000002 C 3186.0799999999986 2259.1700000000023 3170.2499999999986 2177.060000000002 3159.4299999999985 2105.310000000002 C 3153.8399999999983 2068.220000000002 3144.5899999999983 2030.930000000002 3137.8699999999985 1995.2100000000023 C 3130.8299999999986 1957.8300000000022 3117.7099999999987 1923.3000000000022 3111.7599999999984 1890.7800000000022 C 3100.1799999999985 1827.5100000000023 3090.8299999999986 1771.6800000000023 3079.979999999998 1711.4400000000023 C 3073.539999999998 1675.7200000000023 3066.4199999999983 1627.4400000000023 3055.0099999999984 1591.1300000000024 C 3031.0399999999986 1514.7900000000025 3022.8599999999983 1427.2600000000025 3005.0699999999983 1351.6300000000024 C 3000.5899999999983 1332.5800000000024 2999.1099999999983 1314.1700000000023 2993.709999999998 1290.3400000000024 C 2990.5099999999984 1276.1600000000024 2983.949999999998 1239.9300000000023 2974.4199999999983 1238.1300000000024 C 2954.2999999999984 1234.3200000000024 2954.729999999998 1281.6700000000023 2950.579999999998 1300.5500000000025 C 2934.039999999998 1375.8100000000024 2922.699999999998 1437.9200000000023 2908.579999999998 1516.2100000000025 C 2889.9399999999982 1619.6300000000026 2860.559999999998 1721.9900000000025 2842.749999999998 1827.2200000000025 C 2825.719999999998 1927.9000000000026 2801.6899999999982 2030.1300000000026 2780.329999999998 2141.6200000000026 C 2745.659999999998 2322.5900000000024 2708.929999999998 2504.7900000000027 2667.949999999998 2688.7200000000025 C 2662.099999999998 2714.9900000000025 2647.339999999998 2755.6600000000026 2655.469999999998 2776.1200000000026 C 2660.309999999998 2788.2800000000025 2682.949999999998 2798.8400000000024 2694.059999999998 2809.0400000000027 C 2721.119999999998 2833.880000000003 2738.779999999998 2854.420000000003 2761.029999999998 2885.0800000000027 C 2769.409999999998 2896.630000000003 2787.119999999998 2913.610000000003 2785.9999999999977 2933.8900000000026 C 2784.9599999999978 2952.8300000000027 2757.189999999998 2974.3700000000026 2741.7299999999977 2990.650000000003 C 2693.2899999999977 3041.670000000003 2628.509999999998 3081.3900000000026 2555.589999999998 3107.550000000003 C 2452.169999999998 3144.660000000003 2299.9599999999978 3131.780000000003 2208.259999999998 3099.610000000003 C 2151.779999999998 3079.800000000003 2179.929999999998 2977.470000000003 2196.909999999998 2928.220000000003 C 2202.909999999998 2910.810000000003 2212.889999999998 2903.660000000003 2211.6699999999983 2886.220000000003 C 2209.9499999999985 2861.780000000003 2171.659999999998 2833.860000000003 2154.909999999998 2813.580000000003 C 2020.949999999998 2651.280000000003 1865.699999999998 2495.120000000003 1734.939999999998 2334.580000000003 C 1678.619999999998 2265.4200000000033 1610.619999999998 2200.990000000003 1553.329999999998 2130.280000000003 C 1476.9699999999982 2036.010000000003 1391.1899999999982 1951.3300000000029 1313.839999999998 1856.730000000003 C 1295.0199999999982 1833.710000000003 1276.7599999999982 1804.630000000003 1249.139999999998 1793.170000000003 C 1239.429999999998 1823.480000000003 1257.189999999998 1853.500000000003 1266.169999999998 1880.5600000000031 C 1275.579999999998 1908.9500000000032 1290.959999999998 1937.1900000000032 1296.8199999999981 1965.7000000000032 C 1315.5099999999982 2056.6700000000033 1354.139999999998 2140.2000000000035 1380.8099999999981 2229.0300000000034 C 1424.4499999999982 2374.3600000000033 1478.1899999999982 2515.560000000003 1524.9599999999982 2662.6100000000033 C 1543.0999999999983 2719.6400000000035 1559.8199999999981 2779.6400000000035 1581.7099999999982 2836.2800000000034 C 1602.8999999999983 2891.0900000000033 1623.829999999998 2955.770000000003 1638.4699999999982 3011.0800000000036 C 1645.7399999999982 3038.5700000000033 1658.0299999999982 3065.7400000000034 1667.9699999999982 3097.340000000004 C 1676.2199999999982 3123.530000000004 1685.2899999999981 3179.0800000000036 1702.0299999999982 3188.1500000000037 C 1715.4099999999983 3195.3900000000035 1745.1599999999983 3197.010000000004 1763.3199999999981 3200.6300000000037 C 1782.899999999998 3204.5400000000036 1802.179999999998 3210.2500000000036 1818.939999999998 3217.6500000000037 C 1846.129999999998 3229.6700000000037 1903.889999999998 3248.320000000004 1906.339999999998 3276.6700000000037 C 1907.869999999998 3294.510000000004 1884.9699999999982 3326.5400000000036 1875.689999999998 3343.6500000000037 C 1811.619999999998 3461.800000000004 1685.249999999998 3555.280000000004 1529.499999999998 3583.140000000004 C 1506.999999999998 3587.170000000004 1457.969999999998 3597.350000000004 1438.699999999998 3588.810000000004 C 1413.209999999998 3577.530000000004 1427.289999999998 3530.360000000004 1412.589999999998 3505.960000000004 C 1402.179999999998 3488.690000000004 1349.929999999998 3479.600000000004 1322.919999999998 3470.770000000004 C 1290.2999999999981 3460.110000000004 1258.549999999998 3448.940000000004 1228.709999999998 3440.120000000004 C 1164.659999999998 3421.210000000004 1098.829999999998 3401.670000000004 1042.559999999998 3377.700000000004 C 984.3159999999979 3352.870000000004 914.7029999999979 3338.1100000000038 851.874999999998 3318.680000000004 C 787.8479999999979 3298.8600000000038 725.960999999998 3270.790000000004 667.9959999999979 3253.980000000004 C 534.7229999999979 3215.290000000004 410.15599999999796 3171.0100000000043 278.6719999999979 3130.2600000000043 C 262.55099999999794 3125.2600000000043 231.61699999999792 3113.4100000000044 225.32799999999793 3124.5800000000045 C 218.27699999999794 3137.1000000000045 243.90199999999794 3153.7400000000043 246.89099999999792 3156.3600000000047 C 316.85199999999793 3217.6300000000047 387.0469999999979 3276.180000000005 452.3359999999979 3336.8400000000047 C 490.3549999999979 3372.160000000005 535.3869999999979 3402.8400000000047 569.2459999999979 3440.120000000005 C 604.507999999998 3478.960000000005 649.1949999999979 3506.750000000005 685.0199999999979 3544.5500000000047 C 720.2699999999979 3581.7300000000046 762.526999999998 3611.7100000000046 800.796999999998 3648.9800000000046 C 893.507999999998 3739.240000000005 992.487999999998 3820.9000000000046 1091.369999999998 3908.9000000000046 C 1107.5099999999982 3923.2700000000045 1134.349999999998 3955.8800000000047 1152.659999999998 3957.7100000000046 C 1175.709999999998 3960.0000000000045 1196.119999999998 3941.8300000000045 1219.629999999998 3936.1500000000046 C 1244.649999999998 3930.0800000000045 1267.5499999999981 3922.7900000000045 1295.679999999998 3928.200000000005 C 1300.689999999998 3963.220000000005 1298.449999999998 4003.640000000005 1294.549999999998 4041.700000000005 C 1289.449999999998 4091.4000000000046 1255.179999999998 4134.370000000004 1251.4099999999978 4188.120000000004 C 1247.3399999999979 4246.120000000004 1253.0999999999979 4304.760000000005 1275.2499999999977 4350.440000000004 C 1279.6099999999976 4359.450000000004 1286.2399999999977 4371.260000000004 1296.8199999999977 4368.600000000004 C 1309.8899999999976 4365.310000000004 1308.3299999999977 4319.790000000004 1309.2999999999977 4312.980000000004 C 1324.0299999999977 4209.200000000004 1362.0699999999977 4146.610000000004 1377.3999999999976 4043.970000000004 C 1383.1299999999976 4005.640000000004 1390.4099999999976 3961.780000000004 1386.4799999999975 3919.1100000000038 C 1371.2499999999975 3753.490000000004 1238.4199999999976 3704.4600000000037 1126.5599999999974 3639.9000000000037 C 1070.0499999999975 3607.280000000004 1009.5699999999974 3577.3100000000036 954.0269999999974 3542.280000000004 C 788.1479999999974 3437.6900000000037 609.7729999999974 3350.4800000000037 448.92999999999745 3239.220000000004 C 718.6949999999974 3320.060000000004 966.6479999999974 3409.770000000004 1234.3799999999974 3494.600000000004 C 1256.0999999999974 3501.490000000004 1338.8299999999974 3521.500000000004 1346.7599999999975 3542.280000000004 C 1357.9499999999975 3571.6500000000037 1343.1499999999976 3620.910000000004 1344.4899999999975 3653.5200000000036 C 1346.4199999999976 3700.9800000000037 1394.0499999999975 3728.2700000000036 1415.9999999999975 3764.7500000000036 C 1464.2299999999975 3844.9300000000035 1471.6499999999976 3982.8900000000035 1442.0999999999974 4097.320000000003 C 1424.7099999999973 4164.6600000000035 1399.8899999999974 4232.670000000004 1384.2099999999973 4302.760000000003 C 1367.2499999999973 4378.590000000003 1382.9099999999974 4478.710000000003 1429.6099999999974 4508.210000000003 C 1498.9299999999973 4551.980000000003 1642.9599999999973 4533.700000000003 1705.4299999999973 4494.590000000003 C 1719.1299999999974 4486.010000000003 1735.9199999999973 4471.430000000003 1749.6999999999973 4457.130000000003 C 1759.5699999999972 4446.890000000003 1785.2999999999972 4426.370000000003 1784.8899999999974 4411.730000000003 C 1784.3499999999974 4392.560000000003 1739.5999999999974 4367.580000000004 1728.1299999999974 4356.110000000003 C 1673.5699999999974 4301.550000000003 1646.8599999999974 4209.440000000003 1655.4899999999973 4093.9100000000035 C 1665.3699999999974 3961.6900000000037 1726.7199999999973 3865.1500000000033 1787.1599999999974 3777.2400000000034 C 1880.3599999999974 3641.6500000000033 2001.5399999999972 3547.8800000000033 2024.3799999999974 3341.3800000000033 C 2032.0199999999975 3272.3400000000033 2015.6999999999973 3208.0100000000034 2001.6799999999973 3147.2800000000034 C 1988.7899999999972 3091.4500000000035 1954.6999999999973 3047.1800000000035 1926.7699999999973 2997.4500000000035 C 1738.1899999999973 2661.6600000000035 1547.3199999999972 2330.4300000000035 1361.5099999999973 1994.0700000000033" stroke-linecap="round"/>
</g>
</g>
</g>
</svg>