<?xml version="1.0" encoding="UTF-8" standalone="no"?>
<!-- Created with Inkscape (http://www.inkscape.org/) -->

<svg
   version="1.1"
   id="svg2"
   width="793.70667"
   height="1122.52"
   viewBox="0 0 793.70667 1122.52"
   sodipodi:docname="yorha-01.eps"
   xmlns:inkscape="http://www.inkscape.org/namespaces/inkscape"
   xmlns:sodipodi="http://sodipodi.sourceforge.net/DTD/sodipodi-0.dtd"
   xmlns="http://www.w3.org/2000/svg"
   xmlns:svg="http://www.w3.org/2000/svg">
  <defs
     id="defs6" />
  <sodipodi:namedview
     id="namedview4"
     pagecolor="#ffffff"
     bordercolor="#000000"
     borderopacity="0.25"
     inkscape:showpageshadow="2"
     inkscape:pageopacity="0.0"
     inkscape:pagecheckerboard="0"
     inkscape:deskcolor="#d1d1d1" />
  <g
     id="g8"
     inkscape:groupmode="layer"
     inkscape:label="ink_ext_XXXXXX"
     transform="matrix(1.3333333,0,0,-1.3333333,0,1122.52)">
    <g
       id="g10"
       transform="scale(0.1)">
      <path
         d="m 3783.71,7591 c -10.83,-69.86 -1.41,-148.54 -4.54,-227 -3.09,-77.06 1.13,-156.27 1.13,-230.42 -0.02,-597.9 -8.7,-1199.12 0,-1784.3 55.07,20 100.74,69.15 149.84,104.42 17.14,12.33 39.75,21.91 45.4,42 7.06,25.15 -1.61,68.21 -2.28,102.16 -5.04,255.91 -24.08,521.76 -34.05,762.75 -7.66,185.27 -11.92,371 -29.51,552.77 -23.09,238.67 -74.15,471.39 -121.45,681.03 -1.13,0 -1.35,0.92 -2.27,1.14 -1.88,-0.35 -2.2,-4.07 -2.27,-4.55 z m -10.21,225.88 c 17.7,2.01 40.95,-86.29 44.26,-104.42 15.66,-85.77 37,-152.73 59.03,-233.82 5.33,-19.66 5.53,-41.6 11.34,-62.43 30.19,-108.34 41.18,-237.52 59.03,-370.03 51.98,-385.96 68.11,-821.29 77.19,-1225.85 2.48,-110.9 2.92,-248.67 7.94,-367.76 0.74,-17.4 5.33,-31.95 1.13,-40.86 -9.62,-20.44 -59.04,-20.14 -80.59,-29.51 -56.31,-24.5 -90.58,-51.21 -130.53,-89.67 -13.46,-12.97 -30.41,-56.97 -51.08,-57.89 -16.78,-0.74 -42.7,43.85 -52.21,55.62 -38.66,47.85 -94.26,89.35 -164.58,103.29 -15.44,3.06 -39.57,3.54 -45.41,15.89 -6.84,14.5 0,66.18 0,97.61 0,215.2 15.92,439.48 20.44,641.31 8.99,401.13 45.11,830.04 108.97,1186.13 25.37,141.54 65.86,275.03 97.61,402.94 3.8,15.32 19.47,77.41 37.46,79.45"
         style="fill:#231f20;fill-opacity:1;fill-rule:evenodd;stroke:none"
         id="path12" />
      <path
         d="m 2327.44,5455.98 c 14.28,11.73 40.85,23.64 45.4,40.86 3.14,11.85 -0.86,27.76 -1.13,41.99 -3.47,178.97 -13.93,352.89 -20.44,526.67 -2.08,55.83 -7.77,111.65 -9.07,165.71 -5.88,244.88 -16.84,493.94 -43.14,723.03 -25.68,223.76 -73.79,442.44 -121.45,640.17 -1.14,0 -1.35,0.92 -2.27,1.14 -0.01,2.66 -3.09,-0.42 -2.27,-2.27 -3.1,-15.73 -3.63,-51.14 -3.4,-72.65 7.45,-711.55 -0.92,-1455.99 9.08,-2171.35 51.13,30.8 102.03,68.38 148.69,106.7 z m -167.99,2350.68 c 22.39,5.47 35.7,-65.45 42,-82.85 12.34,-34.05 18.37,-64.02 26.1,-97.61 37.32,-162.07 93.45,-357.62 108.97,-549.37 4.51,-55.67 14.59,-113.78 21.57,-170.26 7.07,-57.22 12.25,-117.8 14.75,-177.06 2.51,-59.57 14.23,-118.54 15.9,-175.94 3.49,-120.43 15.66,-245.51 19.29,-367.76 7.27,-245.2 19.3,-495.55 21.56,-730.97 0.2,-20.68 5.29,-34.32 -4.54,-45.4 -13.78,-15.54 -59,-17.81 -80.58,-26.11 -62.56,-24.05 -109.68,-64.43 -148.69,-116.91 -7.07,-9.49 -15.06,-26.31 -24.98,-27.24 -21.33,-1.99 -42.73,45.74 -53.34,56.75 -35.52,36.87 -74.81,74.23 -126,91.94 -30,10.38 -69.48,7.99 -81.72,31.78 -10.92,21.25 -4.08,107.8 -1.13,150.96 3.74,54.92 2.02,108.16 2.27,154.37 0.95,176.97 12.81,342.5 18.16,515.32 11.24,363.12 42.62,723.8 93.07,1039.7 25.39,158.97 70.39,316.64 106.7,461.96 3.37,13.53 17.15,61.42 30.64,64.7"
         style="fill:#231f20;fill-opacity:1;fill-rule:evenodd;stroke:none"
         id="path14" />
      <path
         d="m 3057.28,4688.68 c 22.4,17.5 64.38,36.48 71.51,65.84 7.32,30.15 -1.8,76.67 0,114.63 1.87,39.73 0,80.17 0,115.78 0.01,226.57 0.56,458.31 -9.08,682.16 -2.21,51.36 -7.95,98.65 -7.95,147.56 0,95.02 -4.56,194.41 -10.22,288.3 -16.59,275.95 -50.94,542.45 -118.04,765.03 -1.14,-0.01 -1.35,0.92 -2.27,1.13 -1.43,-0.46 -2.32,-1.46 -2.27,-3.4 -5.89,-446.74 -1.12,-908 -1.14,-1350.71 0,-289.61 -7.74,-598.95 2.27,-884.21 29.13,11.34 50.6,37.13 77.19,57.89 z m 249.71,248.58 c 51.03,2.15 104.17,63.06 157.78,32.91 13.16,-7.4 19.04,-58.05 11.34,-83.99 -8.69,-29.28 -28.31,-53.23 -52.21,-78.32 -17.13,-17.97 -52.53,-58.72 -79.46,-57.89 -23.55,0.73 -52.79,32.75 -70.37,49.95 -22.99,22.5 -42.96,44.1 -53.35,65.83 -7.21,15.09 -6.51,56.02 -31.77,51.07 -18.4,-3.59 -7.78,-84.63 -9.09,-112.36 -1.77,-37.55 0.94,-97.65 -14.75,-118.05 -11.48,-14.91 -38.54,-19.91 -57.89,-30.64 -36.81,-20.44 -68.77,-46.76 -96.48,-80.6 -7.94,-9.69 -22.96,-45.93 -41.99,-45.4 -14.94,0.42 -30.75,32.34 -43.14,46.54 -30.26,34.69 -57.68,58.24 -97.61,81.73 -16.93,9.95 -47.22,15.9 -56.75,31.78 -15.36,25.55 -10.05,107.92 -10.22,150.96 -0.08,20.69 12.51,78.96 -15.89,78.32 -20.92,-0.48 -18.15,-27.34 -26.11,-45.41 -11.79,-26.79 -31.95,-46.87 -53.35,-70.37 -15.09,-16.58 -53.11,-53.83 -73.77,-52.21 -28.73,2.25 -63.78,44.24 -79.46,61.29 -21.14,23 -45.11,52.33 -52.21,87.4 -3.91,19.33 -2.85,62.21 9.08,72.64 18.32,16.03 69.3,2.67 86.27,-5.67 18.35,-9.02 54.65,-33.48 72.64,-28.38 13.35,3.79 19.1,41.72 23.84,55.62 6.7,19.68 14.87,44.99 17.02,61.29 14.19,107.73 -36.42,190.79 -83.99,238.37 -12.56,12.54 -29.21,25.41 -47.67,37.45 -15.08,9.83 -43.87,19.89 -48.81,35.19 -7.32,22.64 7.24,77.4 11.35,106.69 18.6,132.6 37.35,251 70.37,360.95 5.03,16.75 5.86,47.69 21.57,49.94 17.5,2.5 17.96,-28.3 21.56,-43.13 36.58,-150.46 76.06,-349.58 89.67,-528.94 1.31,-17.32 2.87,-68.97 11.35,-79.45 5.94,-7.34 34.25,-8.2 40.87,-2.27 12.16,10.92 4.41,109.44 4.53,136.21 1.08,222.62 4.01,467.83 18.17,695.78 6.33,102.08 8.44,198.16 19.29,298.52 26.49,245.02 61.14,461.73 139.61,659.47 5.19,13.07 14.25,55.82 29.51,56.75 22.91,1.4 21.24,-28.74 26.11,-43.14 10.84,-31.98 24.34,-62.42 35.18,-93.07 102.25,-288.91 126.69,-673.6 139.62,-1051.06 6.42,-187.33 7.95,-375.73 10.22,-565.25 0.33,-27.84 -6.52,-80.99 3.4,-94.21 5.31,-7.08 30.64,-11.61 40.87,-1.14 9.2,9.44 10.83,65.63 12.48,85.14 7.79,92.3 15.56,169.73 31.77,258.78 15.17,83.27 28.35,161.5 48.81,241.77 7.69,30.12 27.76,109.21 46.54,40.86 33.32,-121.24 63.84,-254.5 77.18,-407.48 2.17,-24.77 16.28,-61.71 10.22,-83.99 -5.85,-21.55 -43.66,-28.75 -64.7,-42 -57.01,-35.9 -111.79,-127.75 -116.9,-217.93 -3.63,-63.75 18.1,-115.25 39.72,-166.85"
         style="fill:#231f20;fill-opacity:1;fill-rule:evenodd;stroke:none"
         id="path16" />
      <path
         d="m 1914.28,5302.74 c 126.35,9.88 198.46,-83.36 215.66,-186.14 5.69,-33.99 -4.36,-90.04 47.67,-80.6 25.06,4.56 26.94,40.22 30.65,71.51 9.52,80.29 56.47,152.69 119.18,183.89 6.79,3.37 9.01,4.68 18.16,6.8 111.19,25.83 201.97,-47.78 233.82,-121.45 7.29,-16.85 40.97,-128.46 0,-136.2 -18.05,-3.42 -38.26,9.26 -59.02,10.21 -128.16,5.87 -207.51,-64.3 -254.25,-145.28 -5.34,-9.26 -22.38,-39.32 -19.3,-54.49 2.85,-14.01 34.02,-17.23 48.81,-21.56 17.05,-5 38.62,-11.4 45.4,-24.97 12.52,-25.05 8.32,-70.49 11.35,-97.62 3.14,-28.03 18.66,-57.26 28.38,-79.45 52.59,-120.14 147.25,-223.74 255.38,-283.76 49.9,-27.7 84.82,-27.34 95.35,-101.02 2.24,-15.75 18.97,-65.79 5.67,-76.05 -18.29,-14.12 -86.91,22.53 -101.02,29.51 -193.58,95.74 -304.03,227.88 -396.13,422.24 -13.59,28.68 -20.88,80.6 -49.94,86.26 -17.87,3.48 -35.71,-9.67 -39.73,-20.43 -13.7,-36.66 22.31,-89.41 32.92,-114.64 47.87,-113.77 101.19,-184.93 181.61,-272.41 81.87,-89.06 198.87,-154.28 326.89,-203.18 14.91,-5.69 45.02,-10.79 49.94,-24.97 4.65,-13.39 -0.5,-33.84 -3.4,-45.4 -4.58,-18.33 -24.02,-77.85 -45.41,-82.85 -23.05,-5.4 -57.52,16.34 -74.91,22.69 -50.92,18.62 -87.28,37.67 -133.93,61.3 -19.51,9.88 -45.74,32.8 -64.7,31.78 -17.15,-0.93 -30.74,-27.18 -37.46,-37.46 -23.98,-36.66 -40.43,-85.6 -34.05,-150.96 2,-20.47 11.18,-48.31 18.16,-68.1 6.72,-19.06 25.99,-40.71 23.84,-61.29 -2.73,-26.17 -51.42,-48.84 -81.73,-56.76 -26.36,-6.89 -60.94,-2.77 -83.99,3.41 -54.61,14.62 -114.35,74.52 -120.32,140.74 -8.15,90.5 42.21,135.37 74.92,186.15 24.94,38.73 55.6,73.17 94.21,101.02 10.13,7.31 32.73,22.13 32.91,31.78 0.29,14.57 -47.33,48.47 -57.88,59.02 -99.41,99.41 -167.58,210.8 -225.88,353.01 -10.42,25.41 -20.73,55.83 -27.24,88.53 -5.56,27.91 -20.67,68.86 -13.62,99.88 6.23,27.4 41.6,42.85 63.56,59.03 10.73,7.9 31.89,15.6 34.05,26.1 4.64,22.53 -24.48,82.62 -34.05,98.75 -39.39,66.43 -126.5,129.4 -232.68,123.72 -22.41,-1.2 -57.24,-12.59 -72.65,-6.81 -32.61,12.25 -9.34,95.61 -1.13,121.45 22.44,70.68 86.08,128.05 175.93,135.07"
         style="fill:#231f20;fill-opacity:1;fill-rule:evenodd;stroke:none"
         id="path18" />
      <path
         d="m 3690.63,4844.18 c -27.36,102.46 -100.15,186.45 -215.65,202.04 -19.73,2.67 -45.49,3.45 -65.84,1.14 -18.71,-2.13 -42.34,-12.74 -56.75,-4.54 -31.84,18.11 -3.05,113.25 5.68,133.93 28.2,66.83 96.38,117.28 186.15,121.45 74.45,3.46 107.16,-34.6 140.74,-79.45 21.94,-29.32 45.09,-78.21 47.68,-119.18 2.15,-34.27 0.39,-77.63 45.4,-66.97 35.96,8.52 24.36,52.46 32.91,89.67 24.5,106.61 94.71,194.47 237.22,174.8 55.58,-7.67 111.26,-54.9 137.35,-98.75 11.23,-18.88 21.36,-43.64 26.1,-77.18 3.89,-27.43 9.48,-74.29 -13.61,-81.73 -14.65,-4.71 -49.65,7.35 -66.97,7.95 -116.77,4.04 -210.77,-65.35 -247.45,-145.29 -8.23,-17.95 -27.6,-52.06 -21.56,-76.05 4.47,-17.75 37.1,-28.29 51.08,-38.59 14.61,-10.77 39.17,-26.9 44.26,-45.4 8.8,-31.94 -7.34,-71.94 -13.62,-99.89 -34.84,-155.11 -108.36,-276.68 -197.5,-381.37 -16.53,-19.42 -35.47,-41.74 -54.48,-61.29 -11.38,-11.72 -56.65,-44.88 -56.75,-57.89 -0.07,-10 20.95,-21.65 29.51,-28.38 55.39,-43.49 93.31,-93.03 131.66,-155.5 23.56,-38.37 49.14,-72.14 38.6,-141.89 -12.75,-84.25 -104.18,-173.19 -213.39,-136.2 -24.72,8.37 -66.38,29.83 -68.11,56.75 -1.35,21.06 20.91,45.79 28.38,66.97 21.12,59.91 17.33,143.85 -11.35,196.36 -7.29,13.34 -28.64,54.22 -48.81,55.63 -19.77,1.36 -49.47,-25.27 -64.69,-34.06 -42.69,-24.65 -84.18,-42.46 -135.07,-60.15 -18.5,-6.44 -50.2,-26.74 -76.06,-19.3 -15.24,4.37 -29.01,32.09 -35.18,51.07 -5.62,17.32 -18.81,51.09 -11.35,71.52 7.57,20.73 68.5,31.94 90.8,40.86 154.66,61.76 278.58,161.65 370.03,287.17 49.68,68.18 83.48,138.1 118.05,217.92 5.86,13.53 17.29,38.83 14.75,57.89 -2.83,21.26 -30.74,37.27 -52.21,28.37 -23.1,-9.56 -31.08,-64.32 -43.13,-91.93 -54.89,-125.8 -130.37,-224.96 -229.29,-307.6 -48.52,-40.54 -102.03,-74.59 -165.71,-102.15 -21.77,-9.43 -74.65,-43.98 -96.48,-32.92 -17.62,8.92 -3.59,55.93 0,73.77 12.85,63.9 27.09,70.74 76.05,95.35 115.39,58 216.39,154.3 271.27,276.95 16.21,36.22 34.65,86.29 38.59,129.4 1.81,19.74 -2.99,42.83 3.41,57.88 13.36,31.46 68.53,28.27 95.34,48.81"
         style="fill:#231f20;fill-opacity:1;fill-rule:evenodd;stroke:none"
         id="path20" />
      <path
         d="m 3077.71,3732.97 c -1.54,-54.57 20.27,-98.44 51.08,-131.67 8.19,-8.84 18.84,-16.92 29.51,-20.43 31.99,-10.5 58.87,19.54 87.39,7.94 14.84,-6.02 30.56,-62.75 22.71,-82.85 -6.94,-17.79 -32.21,-18.9 -56.76,-22.7 -94.32,-14.6 -137.54,-51.99 -148.69,-155.5 -6.56,-60.93 -35.6,-127.84 -60.16,-179.34 -5.76,-12.1 -17.28,-46.72 -32.91,-46.54 -19.08,0.21 -37.01,53.29 -44.27,71.51 -17.22,43.26 -34.37,85.78 -46.53,137.34 -4.63,19.58 -1.63,41.99 -6.81,62.43 -12.95,51.05 -54.19,89.44 -104.43,103.29 -23.25,6.4 -80.85,4.56 -94.21,22.69 -13.03,17.71 4.57,91.3 21.57,95.36 24.36,5.8 58.88,-19.87 88.53,-13.63 12.64,2.66 28.15,17.82 37.46,30.65 22.76,31.37 41.74,72.97 45.4,120.31 -94.56,-8.42 -169.3,16.4 -186.15,97.62 -3.46,16.7 -3.92,41.21 5.68,45.4 14.64,6.39 20.37,-8.17 35.18,-6.81 29.1,2.66 54.19,50.42 65.83,74.91 38.37,80.7 38.5,231.16 14.76,330.3 -24.71,103.2 -86.84,177.82 -178.2,220.2 -23.84,11.06 -101.63,12.11 -104.43,36.32 -2.03,17.67 29.09,45.76 44.27,56.76 35.61,25.79 72.79,42.08 132.8,37.45 43.3,-3.34 83.2,-19.2 111.24,-37.45 56,-36.48 110.17,-102.09 122.58,-180.48 5.7,-36.01 -0.03,-92.66 51.08,-79.45 35.27,9.13 23.96,68.75 34.05,108.97 8.55,34.06 38.21,75.81 60.16,102.15 47.35,56.82 158.12,110.4 251.98,74.91 13.21,-4.99 49.92,-26.41 65.83,-41.99 8.51,-8.34 31.96,-31.12 27.25,-49.95 -3.54,-14.09 -82.57,-20.8 -97.62,-26.1 -65.27,-23.01 -120.11,-70.95 -150.97,-130.53 -63.96,-123.5 -74.22,-344.74 1.15,-457.43 7.47,-11.18 24.81,-32.93 40.86,-35.18 17.49,-2.47 26.03,12.86 40.86,6.81 18.75,-7.67 4.67,-57.63 -2.27,-74.92 -23.43,-58.35 -92.02,-85.12 -174.8,-70.37"
         style="fill:#231f20;fill-opacity:1;fill-rule:evenodd;stroke:none"
         id="path22" />
      <path
         d="m 1361.51,1994.07 c 23.73,8.18 35.78,32.42 52.22,49.95 118.42,126.29 223.1,267.24 345.05,393.85 67.75,70.35 130.8,149.1 196.36,225.88 46.66,54.64 97.13,110.71 146.43,170.26 13.88,16.78 45.91,41.34 47.67,61.29 2.71,30.72 -28.62,77.09 -39.73,112.37 -12.18,38.71 -42.63,70.24 -36.32,113.51 8.78,60.26 28.38,106.97 28.38,170.25 0,201.92 -89.22,304.36 -172.53,423.38 -26.96,38.5 -61.16,71.49 -87.4,111.23 -26.21,39.68 -48.28,82.42 -71.51,127.13 -48.61,93.56 -72.54,312.71 30.65,366.62 32.47,16.96 106.83,-1.58 132.8,-13.62 29.01,-13.46 72.24,-40.06 78.31,-71.51 3.89,-20.08 -5.25,-47.34 -6.8,-71.51 -3.17,-49.12 12.4,-96.13 29.51,-129.4 8.32,-16.19 27.18,-34.52 28.37,-51.07 1.41,-19.46 -13.18,-32.67 -18.16,-45.4 -33.6,-86.08 -3.89,-182.45 35.19,-238.36 42.67,-61.05 114.52,-104.24 223.6,-94.21 33.54,3.09 65.21,16.45 87.4,30.65 20.25,12.94 44.82,44.71 69.24,48.8 29.22,4.89 54.13,-18.81 79.46,-29.51 15.56,-6.57 68.46,-21.86 73.77,-36.33 5.35,-14.56 -7.37,-30.77 -12.48,-45.4 -17.45,-49.9 -7.66,-112.08 23.83,-138.47 41.9,-35.1 143.61,-11.24 167.99,-68.1 14.4,-33.58 10.54,-76.78 20.43,-108.96 29.54,-96.2 67.18,-188.61 122.59,-262.2 9.65,-12.83 32.53,-17.68 36.32,-35.2 5.3,-24.5 -0.6,-62.78 0,-93.06 9.05,-456.61 -6.98,-957.1 3.41,-1405.2 24.41,29.06 20.32,69.83 28.37,105.56 24.71,109.72 45.13,227.07 69.23,332.57 0.34,1.44 1.12,4.33 1.15,4.54 27.29,197.67 73.71,380.61 107.82,569.79 3.38,18.7 9.09,42.78 14.75,64.7 11.64,45.03 15.02,87.73 26.12,132.8 5.96,24.24 18.24,54.95 11.35,79.46 -5.88,20.9 -39.65,44.19 -55.62,60.15 -41.28,41.29 -76.41,70.73 -118.05,112.38 -14.85,14.85 -57.26,45.15 -55.61,66.97 1.97,26.17 34.78,56.9 46.53,80.58 29.22,58.91 58.62,112.88 73.78,180.47 9.07,40.48 8.75,116.76 39.73,137.35 42.1,27.98 124.94,17.92 157.77,53.35 18.67,20.15 22.85,46.49 22.71,82.86 -0.13,28.81 -24.04,59.5 -19.3,85.12 3.88,21.01 54.87,31.84 72.64,39.73 25.04,11.12 51.75,34.89 79.45,31.78 15.75,-1.77 31.25,-24.04 44.27,-32.91 45.98,-31.32 96.05,-58.98 180.48,-49.94 86.76,9.27 140.93,66.32 179.33,128.25 30.36,48.98 36.57,129.94 17.02,191.82 -4.91,15.57 -23.15,44.66 -19.29,59.03 8.87,32.94 40.02,66.24 48.8,104.42 4.86,21.07 7.58,44.75 7.95,69.24 0.38,25.21 -12.27,59.34 -3.4,82.86 17.44,46.27 125.05,100.88 202.04,79.45 23.37,-6.49 41.58,-41.27 52.21,-62.42 11.01,-21.91 20.15,-53.89 24.97,-82.86 11.63,-69.86 -8.19,-140.4 -26.11,-186.15 -42.54,-108.64 -102.92,-182.39 -166.85,-265.61 -64.26,-83.63 -127.65,-161.4 -156.64,-276.95 -31.45,-125.38 7.2,-263.88 55.62,-351.86 75.7,-137.57 168.65,-266.35 245.18,-405.21 25.27,-45.86 58.11,-87.37 82.86,-132.8 50.31,-92.37 110.5,-178.88 163.43,-269.02 53.31,-90.75 104.73,-182.11 166.86,-265.59 -32.71,139.49 -95.36,267.92 -131.66,412.02 -11.27,44.7 -29.94,93.11 -46.54,136.2 -33.39,86.68 -57.08,179.71 -90.8,274.69 -21.78,61.34 -47.58,135.43 -69.24,205.44 -7.2,23.24 -16.58,59.2 -30.65,70.38 -27.36,21.74 -84.56,21.79 -123.72,35.18 -29.16,9.97 -112.16,18.69 -128.26,42 -14.48,20.95 -15.84,57.17 -23.84,85.12 -27.52,96.11 15.17,203.46 51.08,262.2 54.7,89.49 127.76,166.02 185.02,248.58 29.81,43 51.61,86.57 77.17,139.61 10.69,22.18 24.16,55.26 27.25,81.72 3.6,31.04 15.14,59.78 13.62,94.21 -4.82,109.66 -16.73,185.62 -73.78,247.45 -13.35,14.46 -55.17,31.54 -55.62,52.21 -0.51,23.81 47.61,59.43 66.97,71.51 29.8,18.57 57.35,34.57 96.48,42 65.02,12.33 154.04,8.38 196.36,-20.44 61.35,-41.76 52.51,-152.24 35.19,-232.68 -16.92,-78.58 -58.12,-148.44 -65.83,-236.09 -19.02,-215.98 88.33,-296.92 229.28,-366.62 66.42,-32.86 132.51,-68.86 196.36,-105.56 192.82,-110.83 386.56,-211.06 587.96,-316.68 -42.6,61.05 -118.11,103.16 -172.53,161.17 -26.54,28.3 -60.26,53.01 -89.67,79.45 -117.69,105.9 -232.99,211.32 -357.54,318.96 -13.9,12.01 -30.21,24.83 -45.4,39.73 -12.99,12.73 -32.13,34.8 -46.54,37.45 -57.19,10.52 -121.62,-52.96 -175.94,-43.13 -33.5,6.07 -50.62,74.65 -55.61,114.64 -7.08,56.73 8.29,104.78 18.16,148.69 14.21,63.25 42.6,124.84 57.88,197.5 2.37,11.22 0.74,65.52 15.9,68.1 16.54,2.81 22.95,-30.71 27.24,-41.99 19.65,-51.69 23.1,-118.42 11.35,-175.94 -8.39,-41.04 -29.47,-69.84 -34.05,-104.43 -2.44,-18.35 -4.18,-40.55 -6.81,-62.42 -1.95,-16.14 -2.2,-55.08 5.67,-60.15 10.87,-7.02 55.91,2.19 72.65,6.8 22.03,6.07 39.74,23.43 60.15,22.7 20.76,-0.73 48.8,-33.7 65.83,-47.67 21.1,-17.29 41.75,-37.15 59.03,-53.35 75.69,-70.98 157.05,-146.98 238.37,-213.39 41.89,-34.21 81.96,-69.48 119.18,-106.7 74,-74 159.81,-138.83 238.36,-213.38 58.3,-55.35 116.75,-105.75 180.46,-158.91 9.25,-7.72 58.85,-40.11 51.08,-59.02 -4.88,-11.9 -32.25,-2.4 -41.99,1.14 -97.35,35.28 -197.06,62.87 -296.25,101.01 -55.61,21.38 -113.81,40.05 -171.39,55.62 -56.83,15.37 -114.37,37.72 -170.26,56.76 -84.6,28.81 -174.59,62.01 -264.47,90.8 -64.27,20.59 -130.54,49.38 -198.63,66.96 -21,5.42 -54.35,14.87 -62.43,26.11 -14.7,20.43 -3.58,72.5 -24.97,85.13 -24.49,14.46 -100.59,-5.84 -122.59,-11.35 -137.98,-34.54 -229.96,-105.63 -303.06,-212.25 -10.9,-15.91 -43.82,-61.9 -41.99,-84 2.44,-29.61 62.02,-51.01 86.26,-62.43 27.37,-12.89 101.13,-13.11 119.18,-32.91 5.78,-6.36 10.07,-30.13 15.89,-43.13 16.82,-37.51 36.33,-89.93 45.4,-128.26 15.54,-65.6 36.35,-120.31 55.63,-175.94 58.37,-168.49 109.9,-353.66 172.52,-524.39 20.28,-55.28 44.98,-115.84 57.89,-173.67 13.18,-59.02 40.85,-118.19 59.02,-173.66 11.92,-36.39 30.21,-87.91 43.13,-130.53 2.32,-7.64 14.35,-39.34 3.4,-45.4 -13.1,-7.26 -30.56,24.48 -34.04,28.38 -31.86,35.68 -63.24,71.29 -90.81,103.28 -39.27,45.58 -84.09,91.22 -121.45,137.35 -36.77,45.39 -77.58,95.15 -120.32,138.47 -44.12,44.72 -78.77,97.33 -120.31,137.35 -42.76,41.18 -78.57,92.81 -121.45,137.34 -87.09,90.41 -154.86,181.49 -240.63,275.81 -20.46,22.5 -39.99,43.08 -60.16,69.24 -15.9,20.64 -57.48,51.75 -56.76,78.32 0.78,28.01 20.08,52.77 26.12,85.13 5.47,29.34 17.56,69.6 7.94,99.88 -6.29,19.8 -46.4,30.81 -71.51,36.33 -31.59,6.94 -61.14,12.09 -89.66,17.02 -167.48,28.93 -315.55,-46.53 -397.27,-128.26 -14.71,-14.7 -49.04,-41.38 -48.81,-62.43 0.34,-32.37 40.98,-72.03 56.75,-90.81 17.78,-21.16 72.39,-49.25 74.91,-78.31 2.37,-27.37 -12.65,-78.13 -21.56,-110.1 -20.78,-74.43 -27.64,-145.88 -44.27,-219.07 -8.49,-37.35 -8.69,-75.66 -19.3,-111.23 -18.75,-62.93 -34.58,-145.04 -45.4,-216.79 -5.59,-37.09 -14.84,-74.38 -21.56,-110.1 -7.04,-37.38 -20.16,-71.91 -26.11,-104.43 -11.58,-63.27 -20.93,-119.1 -31.78,-179.34 -6.44,-35.72 -13.56,-84 -24.97,-120.31 -23.97,-76.34 -32.15,-163.87 -49.94,-239.5 -4.48,-19.05 -5.96,-37.46 -11.36,-61.29 -3.2,-14.18 -9.76,-50.41 -19.29,-52.21 -20.12,-3.81 -19.69,43.54 -23.84,62.42 -16.54,75.26 -27.88,137.37 -42,215.66 -18.64,103.42 -48.02,205.78 -65.83,311.01 -17.03,100.68 -41.06,202.91 -62.42,314.4 -34.67,180.97 -71.4,363.17 -112.38,547.1 -5.85,26.27 -20.61,66.94 -12.48,87.4 4.84,12.16 27.48,22.72 38.59,32.92 27.06,24.84 44.72,45.38 66.97,76.04 8.38,11.55 26.09,28.53 24.97,48.81 -1.04,18.94 -28.81,40.48 -44.27,56.76 -48.44,51.02 -113.22,90.74 -186.14,116.9 -103.42,37.11 -255.63,24.23 -347.33,-7.94 -56.48,-19.81 -28.33,-122.14 -11.35,-171.39 6,-17.41 15.98,-24.56 14.76,-42 -1.72,-24.44 -40.01,-52.36 -56.76,-72.64 -133.96,-162.3 -289.21,-318.46 -419.97,-479 -56.32,-69.16 -124.32,-133.59 -181.61,-204.3 -76.36,-94.27 -162.14,-178.95 -239.49,-273.55 -18.82,-23.02 -37.08,-52.1 -64.7,-63.56 -9.71,30.31 8.05,60.33 17.03,87.39 9.41,28.39 24.79,56.63 30.65,85.14 18.69,90.97 57.32,174.5 83.99,263.33 43.64,145.33 97.38,286.53 144.15,433.58 18.14,57.03 34.86,117.03 56.75,173.67 21.19,54.81 42.12,119.49 56.76,174.8 7.27,27.49 19.56,54.66 29.5,86.26 8.25,26.19 17.32,81.74 34.06,90.81 13.38,7.24 43.13,8.86 61.29,12.48 19.58,3.91 38.86,9.62 55.62,17.02 27.19,12.02 84.95,30.67 87.4,59.02 1.53,17.84 -21.37,49.87 -30.65,66.98 -64.07,118.15 -190.44,211.63 -346.19,239.49 -22.5,4.03 -71.53,14.21 -90.8,5.67 -25.49,-11.28 -11.41,-58.45 -26.11,-82.85 -10.41,-17.27 -62.66,-26.36 -89.67,-35.19 -32.62,-10.66 -64.37,-21.83 -94.21,-30.65 -64.05,-18.91 -129.88,-38.45 -186.15,-62.42 -58.244,-24.83 -127.857,-39.59 -190.685,-59.02 -64.027,-19.82 -125.914,-47.89 -183.879,-64.7 -133.273,-38.69 -257.84,-82.97 -389.324,-123.72 -16.121,-5 -47.055,-16.85 -53.344,-5.68 -7.051,12.52 18.574,29.16 21.563,31.78 69.961,61.27 140.156,119.82 205.445,180.48 38.019,35.32 83.051,66 116.91,103.28 35.262,38.84 79.949,66.63 115.774,104.43 35.25,37.18 77.507,67.16 115.777,104.43 92.711,90.26 191.691,171.92 290.573,259.92 16.14,14.37 42.98,46.98 61.29,48.81 23.05,2.29 43.46,-15.88 66.97,-21.56 25.02,-6.07 47.92,-13.36 76.05,-7.95 5.01,35.02 2.77,75.44 -1.13,113.5 -5.1,49.7 -39.37,92.67 -43.14,146.42 -4.07,58 1.69,116.64 23.84,162.32 4.36,9.01 10.99,20.82 21.57,18.16 13.07,-3.29 11.51,-48.81 12.48,-55.62 14.73,-103.78 52.77,-166.37 68.1,-269.01 5.73,-38.33 13.01,-82.19 9.08,-124.86 -15.23,-165.62 -148.06,-214.65 -259.92,-279.21 -56.51,-32.62 -116.99,-62.59 -172.533,-97.62 -165.879,-104.59 -344.254,-191.8 -505.097,-303.06 269.765,80.84 517.718,170.55 785.45,255.38 21.72,6.89 104.45,26.9 112.38,47.68 11.19,29.37 -3.61,78.63 -2.27,111.24 1.93,47.46 49.56,74.75 71.51,111.23 48.23,80.18 55.65,218.14 26.1,332.57 -17.39,67.34 -42.21,135.35 -57.89,205.44 -16.96,75.83 -1.3,175.95 45.4,205.45 69.32,43.77 213.35,25.49 275.82,-13.62 13.7,-8.58 30.49,-23.16 44.27,-37.46 9.87,-10.24 35.6,-30.76 35.19,-45.4 -0.54,-19.17 -45.29,-44.15 -56.76,-55.62 -54.56,-54.56 -81.27,-146.67 -72.64,-262.2 9.88,-132.22 71.23,-228.76 131.67,-316.67 93.2,-135.59 214.38,-229.36 237.22,-435.86 7.64,-69.04 -8.68,-133.37 -22.7,-194.1 -12.89,-55.83 -46.98,-100.1 -74.91,-149.83 -188.58,-335.79 -379.45,-667.02 -565.26,-1003.38"
         style="fill:#231f20;fill-opacity:1;fill-rule:evenodd;stroke:none"
         id="path24" />
    </g>
  </g>
</svg>
